<!-- icon666.com - MILLIONS OF FREE VECTOR ICONS --><svg version="1.1" id="Layer_1" xmlns="http://www.w3.org/2000/svg" xmlns:xlink="http://www.w3.org/1999/xlink" x="0px" y="0px" viewBox="0 0 512.001 512.001" style="enable-background:new 0 0 512.001 512.001;" xml:space="preserve"><path style="fill:#C0FCFF;" d="M389.084,192.352l-69.435-69.436c-4.604-4.604-10.849-7.193-17.359-7.193 c-6.509,0.002-12.754,2.587-17.356,7.193L41.909,365.94c-2.694,2.694-4.728,5.979-5.929,9.595L1.262,479.688 c-2.941,8.823-0.646,18.548,5.929,25.124c6.576,6.574,16.301,8.869,25.122,5.929l104.152-34.719 c3.615-1.203,6.902-3.236,9.595-5.929l243.023-243.022C398.672,217.482,398.67,201.939,389.084,192.352z"></path><g><path style="fill:#89D2E8;" d="M389.084,192.352l-34.717-34.719L7.192,504.81c6.576,6.574,16.301,8.869,25.122,5.929 l104.152-34.719c3.615-1.203,6.902-3.236,9.595-5.929l243.023-243.022C398.672,217.482,398.67,201.939,389.084,192.352z"></path><path style="fill:#89D2E8;" d="M504.811,203.923c9.586-9.586,9.586-25.128,0-34.717L342.795,7.189 c-9.584-9.586-25.13-9.586-34.717,0l-69.436,69.436c-4.604,4.604-7.193,10.847-7.19,17.36c-0.003,6.51,2.583,12.754,7.19,17.358 l162.018,162.016c4.604,4.604,10.849,7.19,17.359,7.19c6.509,0,12.754-2.586,17.356-7.191L504.811,203.923z"></path></g><path style="fill:#7AC0DE;" d="M504.811,203.923c9.586-9.586,9.586-25.128,0-34.717l-81.006-81.007L319.65,192.354l81.009,81.007 c4.604,4.604,10.849,7.19,17.359,7.19c6.509,0,12.754-2.586,17.356-7.191L504.811,203.923z"></path></svg>