<!-- icon666.com - MILLIONS OF FREE VECTOR ICONS --><svg version="1.1" id="Layer_1" xmlns="http://www.w3.org/2000/svg" xmlns:xlink="http://www.w3.org/1999/xlink" x="0px" y="0px" viewBox="0 0 512 512" style="enable-background:new 0 0 512 512;" xml:space="preserve"><path style="fill:#C0FCFF;" d="M389.083,227.066c4.605-4.605,7.193-10.847,7.191-17.358c0-6.512-2.586-12.757-7.191-17.361 l-69.435-69.43c-9.586-9.586-25.13-9.586-34.717,0.002L41.91,365.94c-2.695,2.694-4.727,5.979-5.929,9.595L1.262,479.687 c-2.943,8.823-0.645,18.548,5.929,25.122c6.574,6.576,16.301,8.872,25.124,5.929l104.155-34.721 c3.615-1.203,6.902-3.236,9.595-5.929L389.083,227.066z"></path><path style="fill:#89D2E8;" d="M389.083,227.066c4.605-4.605,7.193-10.847,7.191-17.358c0-6.512-2.586-12.757-7.191-17.361 l-34.716-34.714L7.191,504.809c6.574,6.576,16.301,8.872,25.124,5.929l104.155-34.721c3.615-1.203,6.902-3.236,9.595-5.929 L389.083,227.066z"></path><g><path style="fill:#7AC0DE;" d="M203.903,215.477c-8.628-8.627-9.681-22.531-1.995-32.41c8.325-10.702,23.747-12.63,34.449-4.306 l104.147,81.005c10.708,8.307,12.63,23.747,4.306,34.449c-8.325,10.702-23.749,12.63-34.449,4.306l-104.147-81.005 C205.394,216.878,204.621,216.197,203.903,215.477z"></path><path style="fill:#7AC0DE;" d="M134.468,284.915c-8.627-8.627-9.679-22.533-1.995-32.411c8.324-10.703,23.747-12.631,34.449-4.308 l104.152,81.002c10.721,8.325,12.63,23.747,4.308,34.449c-8.322,10.702-23.747,12.631-34.449,4.308l-104.152-81.002 C135.958,286.312,135.185,285.63,134.468,284.915z"></path><path style="fill:#7AC0DE;" d="M65.03,354.349c-8.628-8.63-9.682-22.533-1.997-32.413c8.322-10.702,23.747-12.63,34.451-4.306 l104.152,81.005c10.707,8.302,12.633,23.745,4.306,34.449c-8.32,10.702-23.745,12.631-34.449,4.306L67.341,356.385 C66.518,355.745,65.746,355.064,65.03,354.349z"></path><path style="fill:#7AC0DE;" d="M504.81,169.207l-29.943-29.943c2.455-1.17,4.764-2.746,6.797-4.779 c9.586-9.586,9.586-25.128-0.002-34.717l-69.433-69.43c-9.589-9.587-25.132-9.586-34.719,0c-2.031,2.031-3.604,4.339-4.776,6.792 L342.796,7.191C338.191,2.586,331.947-0.002,325.435,0c-6.51-0.002-12.754,2.586-17.356,7.191L238.64,76.629 c-4.604,4.604-7.191,10.847-7.19,17.358c-0.002,6.512,2.584,12.754,7.19,17.358l162.017,162.012c9.587,9.587,25.132,9.587,34.719,0 l69.435-69.433C514.396,194.337,514.396,178.794,504.81,169.207z"></path></g><g><path style="fill:#5192C9;" d="M310.361,298.521c10.7,8.324,26.123,6.396,34.449-4.306c8.324-10.702,6.402-26.141-4.306-34.449 l-49.651-38.621l-34.987,34.987L310.361,298.521z"></path><path style="fill:#5192C9;" d="M240.931,367.954c10.702,8.324,26.127,6.394,34.449-4.308c8.322-10.702,6.414-26.123-4.308-34.449 l-49.655-38.617l-34.986,34.986L240.931,367.954z"></path><path style="fill:#5192C9;" d="M171.493,437.391c10.703,8.325,26.128,6.396,34.449-4.306c8.327-10.703,6.401-26.145-4.306-34.449 l-49.653-38.619l-34.987,34.987L171.493,437.391z"></path><path style="fill:#5192C9;" d="M504.81,169.207l-29.943-29.943c2.455-1.17,4.764-2.746,6.797-4.779 c9.586-9.586,9.586-25.128-0.002-34.717l-34.716-34.714L319.65,192.35l81.007,81.007c9.587,9.587,25.132,9.587,34.719,0 l69.435-69.433C514.396,194.337,514.396,178.794,504.81,169.207z"></path></g></svg>