<!-- icon666.com - MILLIONS OF FREE VECTOR ICONS --><svg viewBox="0 -18 511.99945 511" xmlns="http://www.w3.org/2000/svg"><path d="m483.832031 356.964844 19.820313-14.214844c8.308594-5.953125 10.785156-17.214844 5.746094-26.109375l-10.195313-18c-4.859375-8.582031-15.253906-12.339844-24.480469-8.847656l-22.808594 8.632812c-2.039062-1.527343-4.160156-2.9375-6.332031-4.261719-.042969-.027343-.089843-.054687-.132812-.082031-.90625-.550781-1.832031-1.074219-2.761719-1.589843-.277344-.15625-.558594-.3125-.839844-.464844-.820312-.441406-1.652344-.863282-2.488281-1.277344-.414063-.207031-.828125-.410156-1.25-.605469-.382813-.183593-.761719-.382812-1.148437-.558593l-4.253907-23.628907c-1.714843-9.527343-10.003906-16.457031-19.683593-16.457031h-19c-9.976563 0-18.425782 7.347656-19.808594 17.226562l-3.203125 22.878907c-5.886719 2.664062-11.425781 6.035156-16.507813 10.050781l-23.207031-7.246094c-9.441406-2.953125-19.621094 1.445313-23.945313 10.339844l-8.535156 17.535156c-4.320312 8.882813-1.511718 19.585938 6.613282 25.203125l18.695312 12.925781c-.066406 1.351563-.101562 2.714844-.101562 4.085938 0 1.222656.035156 2.445312.089843 3.667969.019531.425781.050781.84375.074219 1.269531.027344.429688.042969.859375.078125 1.289062l-18.960937 15.175782c-7.679688 6.148437-9.75 16.960937-4.886719 25.507812l9.09375 15.980469c4.832031 8.488281 15.089843 12.246094 24.261719 8.886719l21.925781-8.027344c4.773437 3.625 9.933593 6.699219 15.386719 9.164062l4.253906 23.625c1.714844 9.527344 10.003906 16.457032 19.683594 16.457032h18c9.824218 0 18.195312-7.136719 19.746093-16.839844l3.6875-23.035156c.488281-.214844.964844-.449219 1.445313-.675782.34375-.160156.6875-.3125 1.027344-.476562.851562-.417969 1.691406-.851562 2.527343-1.296875.734375-.394531 1.460938-.804687 2.183594-1.21875.050781-.027344.105469-.058594.15625-.089844 3.917969-2.253906 7.636719-4.8125 11.101563-7.671875l23.382812 6.710938c9.261719 2.660156 19.097656-1.660156 23.40625-10.273438l8.046875-16.082031c4.410156-8.8125 1.746094-19.519531-6.28125-25.238281l-19.484375-13.882813c.039062-.976562.054688-1.953125.054688-2.929687 0-1.203125-.035157-2.410156-.089844-3.613282-.015625-.347656-.035156-.691406-.054688-1.039062-.019531-.292969-.027344-.585938-.046875-.878906zm-50.738281 32.289062c-2.816406 3.574219-6.507812 6.5625-10.777344 8.796875-.128906.070313-.261718.136719-.394531.203125-.753906.382813-1.527344.746094-2.316406 1.082032-.195313.085937-.398438.160156-.59375.238281-.625.25-1.253907.488281-1.894531.710937-.265626.09375-.53125.183594-.796876.269532-.8125.261718-1.632812.507812-2.464843.71875-3.148438.796874-6.441407 1.226562-9.832031 1.226562-3.710938 0-7.296876-.519531-10.703126-1.46875-.574218-.15625-1.140624-.328125-1.703124-.511719-.320313-.105469-.644532-.210937-.960938-.328125-.496094-.175781-.984375-.363281-1.472656-.558594-.492188-.195312-.976563-.402343-1.457032-.617187-.429687-.195313-.855468-.386719-1.277343-.59375-.375-.183594-.746094-.375-1.113281-.570313-.347657-.183593-.6875-.375-1.027344-.570312-.53125-.300781-1.054688-.613281-1.570313-.941406-.402343-.253906-.804687-.507813-1.199219-.777344-.339843-.230469-.675781-.472656-1.007812-.71875-.335938-.246094-.671875-.496094-1-.753906-.300781-.234375-.605469-.464844-.898438-.703125-.546874-.453125-1.085937-.921875-1.609374-1.40625-.253907-.230469-.5-.472657-.75-.710938-.363282-.351562-.722657-.710937-1.074219-1.078125-4.863281-5.058594-8.40625-11.386718-10.082031-18.433594-.128907-.546874-.253907-1.09375-.359376-1.644531-.042968-.230469-.082031-.460937-.121093-.6875-.09375-.539062-.179688-1.082031-.25-1.621093-.03125-.230469-.0625-.464844-.089844-.695313-.0625-.5625-.113281-1.125-.15625-1.6875-.015625-.207031-.035156-.414063-.046875-.625-.042969-.765625-.070312-1.53125-.070312-2.296875 0-.738281.023437-1.476562.0625-2.214844.007812-.09375.015624-.1875.023437-.277344.042969-.664062.097656-1.328124.171875-1.992187.007812-.0625.015625-.121094.023438-.179687.082031-.699219.183593-1.394532.300781-2.089844.007812-.042969.015625-.085938.023437-.128906.121094-.691407.257813-1.378907.414063-2.066407 1.675781-7.300781 5.351562-13.847656 10.425781-19.023437.125-.128906.25-.261719.378906-.390625.402344-.398438.816406-.792969 1.234375-1.175781.085938-.078126.175781-.152344.261719-.230469.839844-.753907 1.710938-1.472657 2.613281-2.15625.070313-.054688.140625-.109375.210938-.160157 1.445312-1.078124 2.96875-2.058593 4.554687-2.9375.125-.066406.25-.136718.375-.207031.496094-.269531 1-.527343 1.511719-.777343.175781-.082032.351563-.160157.527344-.242188.804687-.375 1.621093-.722656 2.453125-1.046875.34375-.132813.691406-.265625 1.039062-.390625.398438-.140625.796875-.277344 1.203125-.40625.554688-.179688 1.117188-.34375 1.679688-.496094 3.351562-.914062 6.875-1.410156 10.511719-1.410156 3.71875 0 7.3125.519531 10.730468 1.472656.550782.152344 1.101563.320313 1.644532.496094.328124.105469.652343.214844.972656.328125.480468.171875.957031.355469 1.429687.542969.457031.183594.910157.371094 1.359375.570312.476563.210938.949219.429688 1.417969.65625.347656.171875.695313.355469 1.042969.535156.378906.199219.75.40625 1.125.621094.320312.183594.648437.363282.96875.558594.597656.363281 1.191406.746094 1.773437 1.144531.289063.195313.570313.402344.855469.609375.394531.285156.785156.578125 1.171875.875.253906.199219.511719.394532.761719.597656.582031.476563 1.152344.96875 1.710937 1.480469.179688.164063.355469.339844.53125.507813.4375.414062.867188.835937 1.285157 1.273437 4.875 5.054688 8.429687 11.386719 10.113281 18.4375.132812.550781.253906 1.097657.359375 1.652344.046875.238281.089844.480469.132812.71875.089844.527344.171875 1.054687.242188 1.585937.035156.242188.066406.484376.09375.726563.0625.550781.113281 1.109375.152344 1.664063.019531.214843.039062.429687.050781.644531.042969.765625.070312 1.53125.070312 2.300781 0 1.382812-.070312 2.765625-.214843 4.144531-.003907.0625-.015626.121094-.023438.183594-.066406.613281-.144531 1.226563-.238281 1.835937-.039063.25-.089844.496094-.132813.742188-.070312.410156-.140625.820312-.222656 1.226562-1.167969 5.636719-3.535156 10.839844-6.808594 15.339844-1.199218.953125-2.308594 2.042969-3.285156 3.28125zm-85.09375-175.753906c0-14.132812-7.289062-26.800781-19.492188-33.882812l-85.855468-49.816407c-12.214844-7.089843-26.8125-7.113281-39.050782-.066406-12.273437 7.070313-19.601562 19.757813-19.601562 33.945313v99.640624c0 14.183594 7.328125 26.875 19.601562 33.941407 6.101563 3.515625 12.785157 5.269531 19.472657 5.269531 6.726562 0 13.453125-1.777344 19.578125-5.332031l85.855468-49.820313c12.203126-7.082031 19.492188-19.746094 19.492188-33.878906zm-124 48.277344v-96.554688l83.195312 48.273438zm287.996094-181.277344v149c0 11.042969-8.953125 20-19.996094 20-11.046875 0-20-8.957031-20-20v-149c0-22.054688-17.945312-40-40-40h-352c-22.054688 0-40 17.945312-40 40v262c0 22.054688 17.945312 40 40 40h158c11.046875 0 20 8.953125 20 20 0 11.042969-8.953125 20-20 20h-158c-44.113281 0-80-35.890625-80-80v-262c0-44.113281 35.886719-80 80-80h352c44.109375 0 79.996094 35.886719 79.996094 80zm0 0" fill="#000000" style="fill: rgb(255, 255, 255);"></path></svg>